# xmcd
#
# Track frame offsets: 
#        150
#        18658
#        32525
#        46816
#        61023
#        75913
#        88350
#        103022
#        116397
#        130715
#        146601
#        161786
#        181139
#        203709
#        216198
#        233423
#        250959
#        269918
#        291093
#        305679
#
# Disc length: 4251 seconds
#
# Revision: 0
# Processed by: cddbd v1.5.2PL0 Copyright (c) Steve Scherf et al.
# Submitted via: ExactAudioCopy v1.3
#
DISCID=16109914
DTITLE=Various Artist - 50 Let České Country - CD3
DYEAR=2016
DGENRE=Country
TTITLE0=Robert Křesťan - Tančím 1996
TTITLE1=Vabank Unit - Obzorem pádí divokej kůň 1996
TTITLE2=Petr Kocman - Asfaltový blues 1996
TTITLE3=Jakub Smolík - Vše je pryč 1997
TTITLE4=Lehká noha - Dolní tok řeky 1997
TTITLE5=Mirek Hoffmann - Není všechno zlatý, co se třpytí 1997
TTITLE6=Schovanky - Dámská jízda 1997
TTITLE7=Grošáci - Co víš o mých váncích 1997
TTITLE8=Robert Křesťan a Druhá tráva - Kdo to obchází můj dům 1998
TTITLE9=Pavel Bobek a Pavlína Jíšová - Motýlek ráno 2000
TTITLE10=František Nedvěd - Zpívám ti míň 2003
TTITLE11=Druhá tráva, feat. Charlie Mc Coy - Orange Blossom Special 20
TTITLE11=04
TTITLE12=Robert Křesťan a Druhá tráva, feat. Katka García - Sbohem, An
TTITLE12=gelíno 2007
TTITLE13=Pavel Bobek - Víc nehledám 2010
TTITLE14=Wabi Daněk a Ďáblovo stádo - A slunce pálí jen 2012
TTITLE15=BlueGround - Víc 2013
TTITLE16=Radimec and Old Horses - To jsem já 2014
TTITLE17=Malina Brothers - McLaren 2015
TTITLE18=Monogram - Naše sny 2015
TTITLE19=Lucie Vondráčková a Petr Kocman – Já to nejsem [Zlej sen] - J
TTITLE19=á to nejsem [Zlej sen]
EXTD=
EXTT0=
EXTT1=
EXTT2=
EXTT3=
EXTT4=
EXTT5=
EXTT6=
EXTT7=
EXTT8=
EXTT9=
EXTT10=
EXTT11=
EXTT12=
EXTT13=
EXTT14=
EXTT15=
EXTT16=
EXTT17=
EXTT18=
EXTT19=
PLAYORDER=
